<?xml version="1.0" encoding="utf-8"?>
<!-- Generator: Adobe Illustrator 22.1.0, SVG Export Plug-In . SVG Version: 6.00 Build 0)  -->
<svg version="1.1" id="Layer_1" xmlns="http://www.w3.org/2000/svg" xmlns:xlink="http://www.w3.org/1999/xlink" x="0px" y="0px"
	 viewBox="0 0 670 126.4" style="enable-background:new 0 0 670 126.4;" xml:space="preserve">
<style type="text/css">
	.st0{fill:#D0016F;}
	.st1{fill:#004F71;}
</style>
<g>
	<g>
		<g>
			<path d="M222.6,38.2c0-0.5,0.4-0.9,0.9-0.9h13.7c5.7,0,10.4,4.6,10.4,10.3c0,4.4-2.9,8-7.1,9.7l6.6,12.1c0.3,0.6,0,1.4-0.8,1.4
				h-5c-0.4,0-0.7-0.2-0.8-0.4l-6.4-12.7h-5.3v12.2c0,0.5-0.4,0.9-0.9,0.9h-4.4c-0.5,0-0.9-0.4-0.9-0.9L222.6,38.2L222.6,38.2z
				 M236.7,52.6c2.5,0,4.7-2.2,4.7-4.9c0-2.5-2.2-4.6-4.7-4.6h-7.8v9.5H236.7z"/>
			<path d="M262.2,38.2c0-0.5,0.4-0.9,0.9-0.9h4.5c0.5,0,0.9,0.4,0.9,0.9v19.6c0,4.1,2.8,7.3,6.9,7.3c4.2,0,7-3.2,7-7.2V38.3
				c0-0.5,0.4-0.9,0.9-0.9h4.5c0.5,0,0.9,0.4,0.9,0.9v19.9c0,7.3-5.8,13.1-13.3,13.1s-13.3-5.9-13.3-13.1v-20H262.2z"/>
			<path d="M320.1,36.8c9.6,0,17.2,7.7,17.2,17.3c0,9.6-7.7,17.2-17.2,17.2c-9.6,0-17.2-7.6-17.2-17.2S310.5,36.8,320.1,36.8z
				 M320.1,65c6,0,11-4.9,11-10.9s-5-11-11-11s-10.9,5-10.9,11C309.1,60.1,314.1,65,320.1,65z"/>
			<path d="M351.8,38.5c0-0.6,0.5-1.1,1.1-1.1h4.2c0.6,0,1.1,0.5,1.1,1.1v12.9l12-13.6c0.2-0.2,0.5-0.5,0.9-0.5h4.8
				c0.9,0,1.4,1,0.8,1.7l-12.5,14.1l13.4,16c0.5,0.6,0.1,1.7-0.9,1.7h-5.2c-0.5,0-0.8-0.2-0.9-0.3l-12.5-15.4v14.5
				c0,0.6-0.5,1.1-1.1,1.1h-4.1c-0.7,0-1.1-0.5-1.1-1.1V38.5z"/>
			<path d="M387,69.5l14.9-32.2c0.1-0.3,0.4-0.5,0.8-0.5h0.5c0.5,0,0.7,0.2,0.8,0.5l14.7,32.2c0.3,0.6-0.1,1.2-0.8,1.2h-4.2
				c-0.7,0-1.1-0.3-1.4-1l-2.3-5.2h-14.3l-2.3,5.2c-0.2,0.5-0.6,1-1.4,1h-4.2C387.1,70.8,386.7,70.2,387,69.5z M407.6,59.3
				l-4.8-10.5h-0.1L398,59.3H407.6z"/>
			<path d="M424.6,38.5c-0.3-0.6,0.1-1.2,0.8-1.2h4.9c0.4,0,0.7,0.3,0.8,0.5l9.2,20.6h0.3l9.2-20.6c0.1-0.2,0.4-0.5,0.8-0.5h4.9
				c0.7,0,1.1,0.6,0.8,1.2l-14.8,32.2c-0.1,0.3-0.4,0.5-0.8,0.5h-0.5c-0.4,0-0.7-0.2-0.8-0.5L424.6,38.5z"/>
			<path d="M468.8,38.2c0-0.5,0.4-0.9,0.9-0.9h4.4c0.5,0,0.9,0.4,0.9,0.9v31.7c0,0.5-0.4,0.9-0.9,0.9h-4.4c-0.5,0-0.9-0.4-0.9-0.9
				V38.2z"/>
			<path d="M492,38.2c0-0.5,0.4-0.9,0.9-0.9h13.7c5.7,0,10.4,4.6,10.4,10.3c0,4.4-2.9,8-7.1,9.7l6.6,12.1c0.3,0.6,0,1.4-0.8,1.4h-5
				c-0.4,0-0.7-0.2-0.8-0.4l-6.4-12.7h-5.3v12.2c0,0.5-0.4,0.9-0.9,0.9h-4.4c-0.5,0-0.9-0.4-0.9-0.9V38.2z M506.1,52.6
				c2.5,0,4.7-2.2,4.7-4.9c0-2.5-2.2-4.6-4.7-4.6h-7.8v9.5H506.1z"/>
			<path d="M527.8,69.5l14.9-32.2c0.1-0.3,0.4-0.5,0.8-0.5h0.5c0.5,0,0.7,0.2,0.8,0.5l14.7,32.2c0.3,0.6-0.1,1.2-0.8,1.2h-4.2
				c-0.7,0-1.1-0.3-1.4-1l-2.3-5.2h-14.3l-2.3,5.2c-0.2,0.5-0.6,1-1.4,1h-4.2C527.8,70.8,527.5,70.2,527.8,69.5z M548.4,59.3
				l-4.8-10.5h-0.1l-4.7,10.5H548.4z"/>
			<path d="M570.1,66.1l1.7-3c0.4-0.7,1.2-0.7,1.6-0.3c0.2,0.1,4.1,3,7.2,3c2.5,0,4.4-1.6,4.4-3.7c0-2.4-2.1-4.1-6.1-5.7
				c-4.5-1.8-9-4.7-9-10.3c0-4.3,3.2-9.2,10.8-9.2c4.9,0,8.6,2.5,9.6,3.2c0.5,0.3,0.6,1.1,0.3,1.6l-1.8,2.7c-0.4,0.6-1.1,1-1.7,0.6
				c-0.4-0.2-4-2.6-6.6-2.6c-2.7,0-4.2,1.8-4.2,3.3c0,2.2,1.8,3.8,5.6,5.4c4.6,1.9,10,4.6,10,10.8c0,4.9-4.3,9.5-11,9.5
				c-6,0-9.6-2.8-10.5-3.7C569.9,67.1,569.6,66.9,570.1,66.1z"/>
			<path d="M610.7,43h-7.3c-0.5,0-0.9-0.4-0.9-0.9v-3.9c0-0.5,0.4-0.9,0.9-0.9h20.9c0.5,0,0.9,0.4,0.9,0.9v3.9
				c0,0.5-0.4,0.9-0.9,0.9h-7.4v26.8c0,0.5-0.4,0.9-0.9,0.9h-4.4c-0.5,0-0.9-0.4-0.9-0.9L610.7,43L610.7,43z"/>
			<path d="M652.8,36.8c9.6,0,17.2,7.7,17.2,17.3c0,9.6-7.7,17.2-17.2,17.2c-9.6,0-17.2-7.6-17.2-17.2S643.2,36.8,652.8,36.8z
				 M652.8,65c6,0,11-4.9,11-10.9s-5-11-11-11s-10.9,5-10.9,11C641.8,60.1,646.8,65,652.8,65z"/>
		</g>
		<g>
			<path d="M222.8,87.6c0-0.3,0.2-0.5,0.5-0.5h1.8c0.3,0,0.5,0.2,0.5,0.5v15.6h7.2c0.3,0,0.5,0.2,0.5,0.5v1.5c0,0.3-0.2,0.5-0.5,0.5
				h-9.5c-0.3,0-0.5-0.2-0.5-0.5V87.6z"/>
			<path d="M234.9,89.2c0-0.9,0.7-1.6,1.5-1.6c0.9,0,1.6,0.7,1.6,1.6c0,0.8-0.7,1.5-1.6,1.5S234.9,90,234.9,89.2z M235.2,95.5
				c0-0.3,0.2-0.5,0.5-0.5h1.5c0.3,0,0.5,0.2,0.5,0.5v9.6c0,0.3-0.2,0.5-0.5,0.5h-1.5c-0.3,0-0.5-0.2-0.5-0.5V95.5z"/>
			<path d="M239.7,95.6c-0.2-0.3,0-0.6,0.4-0.6h1.6c0.3,0,0.4,0.1,0.5,0.3l2.8,6.3l0,0l2.9-6.3c0.1-0.3,0.4-0.3,0.7-0.3h1.2
				c0.4,0,0.6,0.3,0.4,0.6l-4.7,10c-0.1,0.1-0.2,0.3-0.5,0.3h-0.1c-0.2,0-0.4-0.1-0.5-0.3L239.7,95.6z"/>
			<path d="M251.5,104.3l0.6-1c0.1-0.2,0.4-0.3,0.7-0.1c0,0,1.2,0.7,2.5,0.7c0.8,0,1.3-0.3,1.3-0.9c0-0.7-0.6-1.1-2-1.7
				c-1.6-0.7-3-1.7-3-3.5c0-1.3,1.1-2.9,3.6-2.9c1.5,0,2.6,0.5,3.1,0.8c0.2,0.2,0.4,0.5,0.2,0.8l-0.5,0.9c-0.1,0.2-0.5,0.3-0.7,0.2
				c0,0-1.2-0.6-2.2-0.6c-0.9,0-1.2,0.4-1.2,0.8c0,0.7,0.7,1,1.7,1.4c1.9,0.9,3.5,1.7,3.5,3.7c0,1.6-1.6,3.1-3.9,3.1
				c-1.8,0-2.9-0.6-3.5-1.1C251.5,104.7,251.4,104.5,251.5,104.3z"/>
			<path d="M261.7,95.5c0-0.3,0.2-0.5,0.5-0.5h0.7c0.2,0,0.4,0.1,0.5,0.3l0.3,0.9c0.2-0.2,1.5-1.5,3.5-1.5c1.5,0,2.7,0.6,3.4,1.7
				c0.3-0.3,1.8-1.7,3.9-1.7c3.2,0,4.4,2.3,4.4,5v5.3c0,0.3-0.2,0.5-0.5,0.5h-1.5c-0.3,0-0.5-0.2-0.5-0.5v-5.4
				c0-1.7-0.8-2.6-2.2-2.6c-1.6,0-2.6,1.1-2.7,1.3c0.1,0.2,0.1,0.7,0.1,1.3v5.5c0,0.3-0.2,0.5-0.5,0.5h-1.4c-0.3,0-0.5-0.2-0.5-0.5
				v-5.4c0-1.7-0.8-2.6-2.3-2.6c-1.6,0-2.5,1.2-2.6,1.6v6.5c0,0.3-0.2,0.5-0.5,0.5h-1.5c-0.3,0-0.5-0.2-0.5-0.5L261.7,95.5
				L261.7,95.5z"/>
			<path d="M286.7,94.8c2.8,0,4.9,2.1,4.9,4.9c0,0.2,0,0.5-0.1,0.7c0,0.3-0.2,0.5-0.5,0.5h-7.2c0.1,1.4,1.3,2.8,3.1,2.8
				c1,0,1.8-0.4,2.4-0.8c0.3-0.2,0.5-0.3,0.7,0l0.7,1c0.2,0.2,0.3,0.4-0.1,0.7c-0.8,0.7-2.2,1.3-3.9,1.3c-3.2,0-5.3-2.5-5.3-5.6
				C281.4,97.3,283.5,94.8,286.7,94.8z M289.1,99.2c-0.1-1.3-1.1-2.4-2.4-2.4c-1.4,0-2.6,1-2.7,2.4H289.1z"/>
			<path d="M298.6,94.8c1.4,0,2.3,0.5,2.6,0.6v-7.8c0-0.3,0.2-0.5,0.5-0.5h1.5c0.3,0,0.5,0.2,0.5,0.5v17.6c0,0.3-0.2,0.5-0.5,0.5
				h-0.8c-0.2,0-0.4-0.2-0.5-0.5l-0.2-0.8c0,0-1.3,1.5-3.4,1.5c-2.8,0-5-2.5-5-5.6C293.4,97.2,295.6,94.8,298.6,94.8z M298.6,103.6
				c1.6,0,2.4-1.3,2.5-1.6v-4.3c0,0-0.9-0.6-2.3-0.6c-1.8,0-3,1.5-3,3.3C295.8,102.1,296.9,103.6,298.6,103.6z"/>
			<path d="M311.7,94.8c2.8,0,4.9,2.1,4.9,4.9c0,0.2,0,0.5-0.1,0.7c0,0.3-0.2,0.5-0.5,0.5h-7.2c0.1,1.4,1.3,2.8,3.1,2.8
				c1,0,1.8-0.4,2.4-0.8c0.3-0.2,0.5-0.3,0.7,0l0.7,1c0.2,0.2,0.3,0.4-0.1,0.7c-0.8,0.7-2.2,1.3-3.9,1.3c-3.2,0-5.3-2.5-5.3-5.6
				C306.4,97.3,308.5,94.8,311.7,94.8z M314.1,99.2c-0.1-1.3-1.1-2.4-2.4-2.4c-1.4,0-2.6,1-2.7,2.4H314.1z"/>
			<path d="M319.1,87.6c0-0.3,0.2-0.5,0.5-0.5h1.5c0.3,0,0.5,0.2,0.5,0.5v17.6c0,0.3-0.2,0.5-0.5,0.5h-1.5c-0.3,0-0.5-0.2-0.5-0.5
				V87.6z"/>
			<path d="M324.5,104.3l0.6-1c0.1-0.2,0.4-0.3,0.7-0.1c0,0,1.2,0.7,2.5,0.7c0.8,0,1.3-0.3,1.3-0.9c0-0.7-0.6-1.1-2-1.7
				c-1.6-0.7-3-1.7-3-3.5c0-1.3,1.1-2.9,3.6-2.9c1.5,0,2.6,0.5,3.1,0.8c0.2,0.2,0.4,0.5,0.2,0.8l-0.5,0.9c-0.1,0.2-0.5,0.3-0.7,0.2
				c0,0-1.2-0.6-2.2-0.6c-0.9,0-1.2,0.4-1.2,0.8c0,0.7,0.7,1,1.7,1.4c1.9,0.9,3.5,1.7,3.5,3.7c0,1.6-1.6,3.1-3.9,3.1
				c-1.8,0-2.9-0.6-3.5-1.1C324.5,104.7,324.4,104.5,324.5,104.3z"/>
			<path d="M333.2,95.6c-0.2-0.3,0-0.6,0.4-0.6h1.6c0.3,0,0.4,0.1,0.5,0.3l2.8,6.3l0,0l2.9-6.3c0.1-0.3,0.4-0.3,0.7-0.3h1.2
				c0.4,0,0.6,0.3,0.4,0.6l-4.7,10c-0.1,0.1-0.2,0.3-0.5,0.3h-0.1c-0.2,0-0.4-0.1-0.5-0.3L333.2,95.6z"/>
			<path d="M350.2,94.8c2.8,0,4.9,2.1,4.9,4.9c0,0.2,0,0.5-0.1,0.7c0,0.3-0.2,0.5-0.5,0.5h-7.2c0.1,1.4,1.3,2.8,3.1,2.8
				c1,0,1.8-0.4,2.4-0.8c0.3-0.2,0.5-0.3,0.7,0l0.7,1c0.2,0.2,0.3,0.4-0.1,0.7c-0.8,0.7-2.2,1.3-3.9,1.3c-3.2,0-5.3-2.5-5.3-5.6
				C344.9,97.3,347,94.8,350.2,94.8z M352.6,99.2c-0.1-1.3-1.1-2.4-2.4-2.4c-1.4,0-2.6,1-2.7,2.4H352.6z"/>
			<path d="M357.6,95.5c0-0.3,0.2-0.5,0.5-0.5h0.8c0.2,0,0.4,0.2,0.5,0.4l0.3,0.9c0.2-0.3,1.2-1.5,3.1-1.5c1,0,2.2,0.3,1.9,1
				l-0.6,1.3c-0.1,0.3-0.4,0.3-0.6,0.2c-0.2-0.1-0.6-0.2-0.9-0.2c-1.5,0-2.3,1.1-2.4,1.3v6.7c0,0.5-0.3,0.5-0.7,0.5h-1.3
				c-0.3,0-0.5-0.2-0.5-0.5L357.6,95.5L357.6,95.5z"/>
			<path d="M366.5,87.6c0-0.3,0.2-0.5,0.5-0.5h1.5c0.3,0,0.5,0.2,0.5,0.5v11.5l4.1-3.7c0.2-0.2,0.4-0.3,0.7-0.3h1.9
				c0.5,0,0.5,0.5,0.3,0.7l-4.4,4l5.2,5.2c0.2,0.2,0.2,0.7-0.3,0.7h-2.2c-0.2,0-0.4-0.1-0.5-0.2l-4.8-4.9v4.6c0,0.3-0.2,0.5-0.5,0.5
				H367c-0.3,0-0.5-0.2-0.5-0.5L366.5,87.6L366.5,87.6z"/>
			<path d="M383.3,94.8c2.8,0,4.9,2.1,4.9,4.9c0,0.2,0,0.5-0.1,0.7c0,0.3-0.2,0.5-0.5,0.5h-7.2c0.1,1.4,1.3,2.8,3.1,2.8
				c1,0,1.8-0.4,2.4-0.8c0.3-0.2,0.5-0.3,0.7,0l0.7,1c0.2,0.2,0.3,0.4-0.1,0.7c-0.8,0.7-2.2,1.3-3.9,1.3c-3.2,0-5.3-2.5-5.3-5.6
				C378,97.3,380.1,94.8,383.3,94.8z M385.7,99.2c-0.1-1.3-1.1-2.4-2.4-2.4c-1.4,0-2.6,1-2.7,2.4H385.7z"/>
			<path d="M391.4,97.2h-1.1c-0.3,0-0.5-0.2-0.5-0.5v-1.2c0-0.3,0.2-0.5,0.5-0.5h1.1v-2.9c0-0.3,0.2-0.5,0.5-0.5h1.5
				c0.3,0,0.5,0.2,0.5,0.5v3h2.7c0.3,0,0.5,0.2,0.5,0.5v1.2c0,0.3-0.2,0.5-0.5,0.5h-2.7v5.3c0,0.9,0.3,1.1,0.8,1.1
				c0.6,0,1.3-0.3,1.6-0.5s0.5,0,0.6,0.2l0.5,1.2c0.1,0.3,0,0.5-0.2,0.6c-0.3,0.2-1.8,0.8-3.1,0.8c-2.1,0-2.7-1.3-2.7-3.2
				L391.4,97.2L391.4,97.2z"/>
			<path d="M430,87.6c0-0.3,0.2-0.5,0.5-0.5h10.6c0.3,0,0.5,0.2,0.5,0.5v1.5c0,0.3-0.2,0.5-0.5,0.5h-8.4v6.1h7.1
				c0.3,0,0.5,0.2,0.5,0.5v1.5c0,0.3-0.2,0.5-0.5,0.5h-7.1v7c0,0.3-0.2,0.5-0.5,0.5h-1.7c-0.3,0-0.5-0.2-0.5-0.5L430,87.6L430,87.6z
				"/>
			<path d="M443.5,89.2c0-0.9,0.7-1.6,1.5-1.6c0.9,0,1.6,0.7,1.6,1.6c0,0.8-0.7,1.5-1.6,1.5S443.5,90,443.5,89.2z M443.8,95.5
				c0-0.3,0.2-0.5,0.5-0.5h1.5c0.3,0,0.5,0.2,0.5,0.5v9.6c0,0.3-0.2,0.5-0.5,0.5h-1.5c-0.3,0-0.5-0.2-0.5-0.5V95.5z"/>
			<path d="M449.7,95.5c0-0.3,0.2-0.5,0.5-0.5h0.8c0.2,0,0.4,0.1,0.4,0.3l0.3,0.9c0.2-0.2,1.6-1.5,3.7-1.5c3.2,0,4.4,2.3,4.4,5v5.3
				c0,0.3-0.2,0.5-0.5,0.5h-1.4c-0.3,0-0.5-0.2-0.5-0.5v-5.4c0-1.7-0.8-2.6-2.2-2.6c-1.7,0-2.8,1.2-2.9,1.6v6.5
				c0,0.3-0.2,0.5-0.6,0.5h-1.4c-0.3,0-0.5-0.2-0.5-0.5L449.7,95.5L449.7,95.5z"/>
			<path d="M463.2,95.5c0-0.3,0.2-0.5,0.5-0.5h0.8c0.2,0,0.4,0.1,0.4,0.3l0.3,0.9c0.2-0.2,1.6-1.5,3.7-1.5c3.2,0,4.4,2.3,4.4,5v5.3
				c0,0.3-0.2,0.5-0.5,0.5h-1.5c-0.3,0-0.5-0.2-0.5-0.5v-5.4c0-1.7-0.8-2.6-2.2-2.6c-1.7,0-2.8,1.2-2.9,1.6v6.5
				c0,0.3-0.2,0.5-0.6,0.5h-1.4c-0.3,0-0.5-0.2-0.5-0.5V95.5z"/>
			<path d="M476.4,89.2c0-0.9,0.7-1.6,1.5-1.6c0.9,0,1.6,0.7,1.6,1.6c0,0.8-0.7,1.5-1.6,1.5C477.1,90.7,476.4,90,476.4,89.2z
				 M476.7,95.5c0-0.3,0.2-0.5,0.5-0.5h1.5c0.3,0,0.5,0.2,0.5,0.5v9.6c0,0.3-0.2,0.5-0.5,0.5h-1.5c-0.3,0-0.5-0.2-0.5-0.5V95.5z"/>
			<path d="M482.1,104.3l0.6-1c0.1-0.2,0.4-0.3,0.7-0.1c0,0,1.2,0.7,2.5,0.7c0.8,0,1.3-0.3,1.3-0.9c0-0.7-0.6-1.1-2-1.7
				c-1.6-0.7-3-1.7-3-3.5c0-1.3,1.1-2.9,3.6-2.9c1.5,0,2.6,0.5,3.1,0.8c0.2,0.2,0.4,0.5,0.2,0.8l-0.5,0.9c-0.1,0.2-0.5,0.3-0.7,0.2
				c0,0-1.2-0.6-2.2-0.6c-0.9,0-1.2,0.4-1.2,0.8c0,0.7,0.7,1,1.7,1.4c1.9,0.9,3.5,1.7,3.5,3.7c0,1.6-1.6,3.1-3.9,3.1
				c-1.8,0-2.9-0.6-3.5-1.1C482.1,104.7,482,104.5,482.1,104.3z"/>
			<path d="M492.2,87.6c0-0.3,0.2-0.5,0.5-0.5h1.5c0.3,0,0.5,0.2,0.5,0.5v8.3c0.3-0.2,1.5-1.1,3.2-1.1c3,0,4.4,2.2,4.4,5v5.3
				c0,0.3-0.2,0.5-0.5,0.5h-1.5c-0.3,0-0.5-0.2-0.5-0.5v-5.4c0-1.7-0.9-2.7-2.3-2.7c-1.6,0-2.7,1.2-2.9,1.7v6.4
				c0,0.3-0.2,0.5-0.5,0.5h-1.5c-0.3,0-0.5-0.2-0.5-0.5L492.2,87.6L492.2,87.6z"/>
			<path d="M512.4,87.6c0-0.3,0.2-0.5,0.5-0.5h10.6c0.3,0,0.5,0.2,0.5,0.5v1.5c0,0.3-0.2,0.5-0.5,0.5h-8.4v6.1h7.1
				c0.3,0,0.5,0.2,0.5,0.5v1.5c0,0.3-0.2,0.5-0.5,0.5h-7.1v7c0,0.3-0.2,0.5-0.5,0.5h-1.7c-0.3,0-0.5-0.2-0.5-0.5V87.6z"/>
			<path d="M530.3,94.8c3,0,5.4,2.6,5.4,5.6c0,3.1-2.4,5.6-5.4,5.6s-5.4-2.6-5.4-5.6C524.9,97.3,527.3,94.8,530.3,94.8z
				 M530.3,103.6c1.7,0,3-1.5,3-3.3s-1.3-3.2-3-3.2s-3,1.5-3,3.2C527.3,102.1,528.6,103.6,530.3,103.6z"/>
			<path d="M542.9,94.8c3,0,5.4,2.6,5.4,5.6c0,3.1-2.4,5.6-5.4,5.6s-5.4-2.6-5.4-5.6C537.5,97.3,539.9,94.8,542.9,94.8z
				 M542.9,103.6c1.7,0,3-1.5,3-3.3s-1.3-3.2-3-3.2s-3,1.5-3,3.2C539.9,102.1,541.2,103.6,542.9,103.6z"/>
			<path d="M555.3,94.8c1.4,0,2.3,0.5,2.6,0.6v-7.8c0-0.3,0.2-0.5,0.5-0.5h1.5c0.3,0,0.5,0.2,0.5,0.5v17.6c0,0.3-0.2,0.5-0.5,0.5
				h-0.8c-0.2,0-0.4-0.2-0.5-0.5l-0.2-0.8c0,0-1.3,1.5-3.4,1.5c-2.8,0-5-2.5-5-5.6C550.1,97.2,552.4,94.8,555.3,94.8z M555.4,103.6
				c1.6,0,2.4-1.3,2.5-1.6v-4.3c0,0-0.9-0.6-2.3-0.6c-1.8,0-3,1.5-3,3.3C552.6,102.1,553.7,103.6,555.4,103.6z"/>
			<path d="M568.1,105l8.2-17.9c0.1-0.2,0.3-0.3,0.5-0.3h0.3c0.1,0,0.4,0.1,0.5,0.3l8.1,17.9c0.2,0.3-0.1,0.7-0.5,0.7h-1.7
				c-0.3,0-0.5-0.2-0.6-0.4l-1.6-3.6h-8.7c-0.5,1.2-1.1,2.4-1.6,3.6c-0.1,0.2-0.3,0.4-0.6,0.4h-1.7
				C568.2,105.7,567.9,105.3,568.1,105z M580.1,99.3l-3.3-7.3h-0.1l-3.2,7.3H580.1z"/>
			<path d="M586.9,95.5c0-0.3,0.2-0.5,0.5-0.5h1.5c0.3,0,0.5,0.2,0.5,0.5v5.4c0,1.7,0.8,2.7,2.2,2.7c1.6,0,2.6-1.3,2.6-1.8v-6.3
				c0-0.4,0.2-0.5,0.6-0.5h1.4c0.3,0,0.5,0.2,0.5,0.5v9.6c0,0.3-0.2,0.5-0.5,0.5h-0.7c-0.3,0-0.4-0.2-0.5-0.4l-0.3-0.8
				c-0.2,0.2-1.4,1.5-3.5,1.5c-3.2,0-4.3-2.3-4.3-5V95.5z"/>
			<path d="M600.9,97.2h-1.1c-0.3,0-0.5-0.2-0.5-0.5v-1.2c0-0.3,0.2-0.5,0.5-0.5h1.1v-2.9c0-0.3,0.2-0.5,0.5-0.5h1.5
				c0.3,0,0.5,0.2,0.5,0.5v3h2.7c0.3,0,0.5,0.2,0.5,0.5v1.2c0,0.3-0.2,0.5-0.5,0.5h-2.7v5.3c0,0.9,0.3,1.1,0.8,1.1
				c0.6,0,1.3-0.3,1.6-0.5s0.5,0,0.6,0.2l0.5,1.2c0.1,0.3,0,0.5-0.2,0.6c-0.3,0.2-1.8,0.8-3.1,0.8c-2.1,0-2.7-1.3-2.7-3.2
				L600.9,97.2L600.9,97.2z"/>
			<path d="M609.4,87.6c0-0.3,0.2-0.5,0.5-0.5h1.5c0.3,0,0.5,0.2,0.5,0.5v8.3c0.3-0.2,1.5-1.1,3.2-1.1c3,0,4.4,2.2,4.4,5v5.3
				c0,0.3-0.2,0.5-0.5,0.5h-1.5c-0.3,0-0.5-0.2-0.5-0.5v-5.4c0-1.7-0.9-2.7-2.3-2.7c-1.6,0-2.7,1.2-2.9,1.7v6.4
				c0,0.3-0.2,0.5-0.5,0.5h-1.4c-0.3,0-0.5-0.2-0.5-0.5V87.6z"/>
			<path d="M627.4,94.8c3,0,5.4,2.6,5.4,5.6c0,3.1-2.4,5.6-5.4,5.6s-5.4-2.6-5.4-5.6C622.1,97.3,624.5,94.8,627.4,94.8z
				 M627.4,103.6c1.7,0,3-1.5,3-3.3s-1.3-3.2-3-3.2s-3,1.5-3,3.2C624.4,102.1,625.8,103.6,627.4,103.6z"/>
			<path d="M635.5,95.5c0-0.3,0.2-0.5,0.5-0.5h0.8c0.2,0,0.4,0.2,0.5,0.4l0.3,0.9c0.2-0.3,1.2-1.5,3.1-1.5c1,0,2.2,0.3,1.9,1
				l-0.6,1.3c-0.1,0.3-0.4,0.3-0.6,0.2c-0.2-0.1-0.6-0.2-0.9-0.2c-1.5,0-2.3,1.1-2.4,1.3v6.7c0,0.5-0.3,0.5-0.7,0.5h-1.3
				c-0.3,0-0.5-0.2-0.5-0.5L635.5,95.5L635.5,95.5z"/>
			<path d="M644.1,89.2c0-0.9,0.7-1.6,1.5-1.6c0.9,0,1.6,0.7,1.6,1.6c0,0.8-0.7,1.5-1.6,1.5C644.8,90.7,644.1,90,644.1,89.2z
				 M644.4,95.5c0-0.3,0.2-0.5,0.5-0.5h1.5c0.3,0,0.5,0.2,0.5,0.5v9.6c0,0.3-0.2,0.5-0.5,0.5h-1.5c-0.3,0-0.5-0.2-0.5-0.5V95.5z"/>
			<path d="M651.1,97.2h-1.2c-0.3,0-0.5-0.2-0.5-0.5v-1.2c0-0.3,0.2-0.5,0.5-0.5h1.1v-2.9c0-0.3,0.2-0.5,0.5-0.5h1.5
				c0.3,0,0.5,0.2,0.5,0.5v3h2.7c0.3,0,0.5,0.2,0.5,0.5v1.2c0,0.3-0.2,0.5-0.5,0.5h-2.7v5.3c0,0.9,0.3,1.1,0.8,1.1
				c0.6,0,1.3-0.3,1.6-0.5s0.5,0,0.6,0.2l0.5,1.2c0.1,0.3,0,0.5-0.2,0.6c-0.3,0.2-1.8,0.8-3.1,0.8c-2.1,0-2.7-1.3-2.7-3.2v-5.6
				H651.1z"/>
			<path d="M658.1,95.7c-0.2-0.3,0.1-0.7,0.5-0.7h1.8c0.2,0,0.4,0.1,0.5,0.3l3.3,7.1l0,0l3.2-7.1c0.1-0.2,0.3-0.3,0.6-0.3h1.5
				c0.4,0,0.6,0.3,0.5,0.7l-8.1,17.6c-0.1,0.2-0.2,0.3-0.5,0.3h-1.6c-0.4,0-0.6-0.3-0.5-0.7l3.6-7.6L658.1,95.7z"/>
		</g>
		<circle class="st0" cx="413.6" cy="98.9" r="5.5"/>
	</g>
	<g>
		<path class="st1" d="M6.6,46.8c1,0,1.8-0.8,1.8-1.8l0.1-16.6c0-1-0.8-1.8-1.8-1.8s-1.8,0.8-1.8,1.8L4.8,45
			C4.8,45.9,5.6,46.8,6.6,46.8z"/>
		<path class="st1" d="M11.6,46.8c1,0,1.8-0.8,1.8-1.8l0.1-16.6c0-1-0.8-1.8-1.8-1.8s-1.8,0.8-1.8,1.8L9.8,45
			C9.8,45.9,10.6,46.8,11.6,46.8z"/>
		<path class="st1" d="M17.1,27.6c-1,0-1.8,0.8-1.8,1.8v18.3c0,0.9-0.2,1.7-0.5,2.3c-0.8,1.4-2.2,2.1-4.2,2.1H8.3
			c-2.1,0-3.4-0.7-4.2-2.1c-0.4-0.6-0.5-1.4-0.5-2.3V29.4c0-1-0.8-1.8-1.8-1.8S0,28.4,0,29.4v18.3c0,1.5,0.4,2.9,1,4.1
			c1,1.8,2.7,3.1,4.8,3.6c-0.1,6.3-0.5,30-1,51.3c0,0.5-0.1,2.7,1.3,4.3c0.6,0.6,1.6,1.4,3.4,1.4h0.1l0,0c1.7,0,2.8-0.8,3.4-1.4
			c1.4-1.6,1.4-3.8,1.3-4.3c-0.4-21.3-0.8-45-1-51.3c2.1-0.6,3.8-1.8,4.8-3.6c0.7-1.2,1-2.6,1-4.1V29.4
			C18.9,28.5,18.1,27.6,17.1,27.6z M10,108.6c-0.1,0.1-0.2,0.2-0.7,0.2s-0.6-0.2-0.7-0.2c-0.3-0.3-0.4-1.1-0.4-1.5V107
			C8.6,86,9,62.6,9.1,55.9h0.2C9.4,62.6,9.8,86,10.2,107v0.1C10.4,107.3,10.3,108.2,10,108.6z"/>
		<path class="st1" d="M173.2,66.2v7c0,0-0.1-28.7-0.1-49c0,0,0,0-1.7,0l0,0c-0.1,0-10.2,0.1-10.4,12.1c0,1.4-0.1,3-0.1,4.9
			c-0.4,20.6-0.5,24.5,0.7,27.3c0.8,1.9,2.1,3.3,3.9,4.1c-0.6,10.2-0.7,13.5-1.7,30.5l-0.1,3.1c0,0.8-0.1,3,1.5,4.7
			c0.9,1,2,1.5,3.3,1.5s2.4-0.5,3.2-1.4c1.6-1.7,1.6-3.8,1.6-4.7C173.2,90.3,173.2,71.2,173.2,66.2z M169.6,108.5
			c-0.2,0.2-0.6,0.3-1,0.3c-0.5,0-0.9-0.2-1.1-0.4c-0.5-0.5-0.4-1.5-0.4-1.9l0.1-3.1c0.8-16.6,0.8-19.7,1.4-29.8c0.3,0,1.1,0,1.4,0
			c0,5.4,0,17.1,0,32.8l0,0C170.1,106.9,170.1,108.1,169.6,108.5z M164.8,67.1c-1.1-2.7-0.6-16.5-0.4-25.8c0-1.8,0.1-3.5,0.1-4.9
			c0.1-5.8,3.4-7.7,5.5-8.3l0.1,41.7C168.5,69.9,165.7,69.4,164.8,67.1z"/>
		<circle class="st0" cx="99" cy="9.9" r="9.9"/>
		<g>
			<path class="st1" d="M121.8,35.1c-1-0.5-2-0.7-2.8-0.8c-1.4-0.2-2.5,1.2-2,2.5c0.3,0.6,0.8,1,1.5,1.1c0.6,0.1,1.6,0.2,2.3,0.4
				c0.9,0.3,1.7,0.6,2.4,1c0.2,0.1,0.1,0.4-0.1,0.4c-0.5,0-1.3-0.2-2.1-0.1c-0.4,0-1.5,0.1-1.7-0.4l0,0c-0.4-0.8-1.1-1-1.9-0.9
				c-1,0.2-1.4,1.2-1.1,2.2c0.2,0.7,0.5,1.1,0.8,1.4c0.2,0.2,1.3,1.2,3.3,0.8c0.7-0.1,1.4,0.1,1.9,0.2s0.9,0.1,1.2,0.2h0.1
				c1.4,0,2.5-0.8,3-1.9c0.4-1,0.1-2.1-0.3-2.7C125.4,37,124.4,36.4,121.8,35.1z"/>
			<path class="st1" d="M72.4,56.4h12.2V44.2H72.4V56.4z M76.1,48h4.8v4.8h-4.8V48z"/>
			<path class="st1" d="M61.5,42.6h-6.6c-1,0-1.8,0.8-1.8,1.8l0,0c0,1,0.8,1.8,1.8,1.8h10.3V31.7l13.3-13.3l13.2,13.2v8.2h9.1
				c1,0,1.8-0.8,1.8-1.8l0,0c0-1-0.8-1.8-1.8-1.8h-5.4v-6.1L78.5,13.2l-17,17L61.5,42.6L61.5,42.6z"/>
			<path class="st1" d="M78.5,28.1c-3.4,0-6.1,2.7-6.1,6.1s2.7,6.1,6.1,6.1c3.4,0,6.1-2.7,6.1-6.1S81.9,28.1,78.5,28.1z M78.5,36.6
				c-1.3,0-2.4-1.1-2.4-2.4s1.1-2.4,2.4-2.4c1.3,0,2.4,1.1,2.4,2.4S79.8,36.6,78.5,36.6z"/>
			<path class="st1" d="M94.9,83.6L94.9,83.6c-0.5-0.9-1.6-1.3-2.5-0.8c-7.6,3.8-14.8,8.4-21.7,13.6c-0.8,0.6-1,1.8-0.3,2.6l0,0
				c0.6,0.8,1.8,0.9,2.6,0.3c6.7-5.1,13.7-9.5,21.1-13.3C95,85.6,95.3,84.5,94.9,83.6z"/>
			<path class="st1" d="M149.4,51.5c-0.7-3.4-2.1-7.4-3.1-9.6c-2-4.5-3.7-6.7-3.8-6.8l-0.5-0.7h-0.8c-0.1,0-3.5-0.1-6-0.1
				c-2.2,0-3.3,0-5.2-0.4s-3.6-1.5-5.1-2.2c-2.1-1.1-4.3-2.1-6.6-2.2h-0.1l0,0c-3.7,0-5.2-1.9-5.6-2.9c-0.4-0.8-1.3-1.2-2.1-1.1
				c-0.9,0.2-1.5,0.9-1.6,1.8c-0.1,0.8-0.1,2.1,0.3,3.2c0.2,0.7,0.5,1.4,1.1,2c-0.2,0.2-0.3,0.5-0.5,0.7L102,43.9l-0.1,0.2
				c-0.7,1-1.9,2.4-1.5,4.1c0.3,1.6,3.3,4.4,5.6,4.4c0.9,0,1.9-0.2,3.1-0.4c1.2-0.2,2.5-0.5,3.7-0.5c1.3-0.1,2.1,0,2.8,0
				c0.4,0,0.8,0,1.1,0c2.7,2.6,3.8,4,5,5.6c0.2,0.3,0.4,0.5,0.6,0.8c-11.2,2.3-22,5.9-32.3,10.8c-2.1,1-4.2,2.1-6.2,3.2
				c-7.3-4.9-16.2-8.9-25.7-11.5c-8.2-2.3-16.7-3.6-24.8-3.7c0.1-0.7,0.3-2,0.3-2c0.6-3.7,1.6-7.1,2.9-10.4c1.7,0.7,3.7,1.1,5.8,1.1
				c1.6,0,3.2-0.2,4.6-0.7c4.6-1.5,8.2-8.1,8.6-8.8l1-1.9l-1.8-0.7c1.9-1.5,3.7-3.8,4.7-6.8c0.2-0.5,0.3-1.4,0.3-1.4
				c-0.5-0.3-1.8-0.5-1.8-0.5c0.9-0.8,2.1-2,2.9-3.2c0.3-0.5,0.6-1.1,0.7-1.5c-1.2-1.4-3-2.1-4.2-2.3c1.3-2.6,1.4-4.1,1.2-5.9
				c-0.4-3.2-2.1-5.4-3.2-5.9c0,0-0.7,0.1-1.3,0.4c-0.9,0.4-1.5,0.7-3,2.2c-0.4,0.4-0.7,0.8-1,1.3c-1.4-1.5-2.9-2.4-3.1-2.6
				l-0.8-0.5l-0.9,0.4c-0.2,0.1-4.4,2.1-5.6,8.5c-0.3-0.2-0.4-0.3-1-0.7c-1.7-1-3.7-1.2-3.7-1.2s-3,2.1-3.5,6.7
				c-0.2,1.5,0,3,0.1,4.5c-2.6-1.6-4.9-1.8-5-1.8h-0.9c-1.3,1.5-4.2,7.2,0,15.5c1.6,3.3,4.9,4.7,7,5.5c-1.2,3.2-2,6.3-2.6,9.9l0,0
				c-0.1,0.8-0.3,1.6-0.4,2.5l0,0c0,0.1,0,0.2,0,0.2l0,0l0,0c-0.4,2.8-0.6,5.9-0.6,8.8c0,14,4.9,27.7,13.8,38.5
				c8.8,10.7,21,18.1,34.5,20.9c0.5,0.1,6.3,1.4,12.3,1.4c2.6,0,5.3-0.2,7.5-0.9c6-1.9,9.5-3.8,13.2-10.1c1-1.6,1.7-3.1,2.2-4.5
				c1.7,0.3,4,0.5,5.1,0.6h0.1c8.8,0,15.8-3,20.7-9c6.4-7.8,9.4-17.2,9.5-17.6c1.2-3.7,3.1-11.1,3.1-19.6
				C151,59.9,150.4,56.1,149.4,51.5z M121.2,50.8c1.1-0.4,1.9-0.9,2.4-1.5c0.7-0.8,1.1-2,1.4-3c0.3-1.2-0.6-2.3-1.8-2.3
				c-0.9,0-1.6,0.6-1.8,1.4c-0.1,0.6-0.4,1.2-0.6,1.5c-0.3,0.3-1.5,0.8-3.5,1c-0.4,0-0.8,0-1.4,0c-0.8,0-1.8-0.1-3.3,0
				c-1.4,0.1-2.8,0.4-4.1,0.6c-1,0.2-1.9,0.4-2.5,0.4c-0.5-0.1-1.5-0.9-2-1.5c0.1-0.3,0.5-0.8,0.7-1.1l0.1-0.2l7.8-10.8v-0.1
				c0.2-0.3,0.5-0.8,0.8-1.1c1.6,0.1,2.8-0.5,3.5-0.9c0.4-0.1,0.6-0.2,1.1-0.2l0,0c1.5,0,3.3,1,5,1.8c1.7,0.9,4.4,2.3,6.2,2.6
				c2.2,0.4,3.3,0.5,5.8,0.5c1.6,0,3.7,0.1,4.9,0.1c0.6,0.9,1.7,2.7,2.8,5.3c0.9,2.2,2.2,5.9,2.9,8.9c0.2,1,0.4,1.9,0.6,2.8
				c-6.8,0.3-13.5,1-20,2.1c-0.7-0.8-1.2-1.5-1.7-2.2C123.7,53.8,122.8,52.6,121.2,50.8z M45.7,41.3c-2.5,0.8-5.7,0.6-7.7-0.2
				c0.8-1.8,2-3.7,6.4-4.8c2.4-0.6,4.8-0.3,6.5,0C49.7,38.2,47.6,40.6,45.7,41.3z M53.7,11.2c0.2-0.2,0.5-0.4,0.7-0.6
				c0.2,0.5,0.4,1,0.5,1.7c0.1,0.8,0.1,3.2-1.4,4.5c-0.2,0.2-0.2,0.2-0.7,0.6c-0.1-1.1-0.3-2.3-0.6-3.6C52.3,13.2,52.8,12,53.7,11.2
				z M51.9,23c0.1-0.1,1.1-0.9,2.1-1.8c0.9-0.2,2.4-0.1,3.1-0.1c-1.2,1.2-2.5,2-3.2,2.4c-0.6-0.1-1.9-0.2-2.4-0.2L51.9,23z
				 M45.9,11.1c0.9,0.7,2.1,1.9,2.4,3.2l0,0c0.9,3,0.7,5.2,0.6,6.2c-0.9,0.8-2.6,2.4-4.2,4.1c-0.4-1.4-1-3-1.8-4.5
				C42.8,14.7,44.8,12.1,45.9,11.1z M44.7,30.4l0.6-0.8c0.4-0.5,0.8-0.9,1.2-1.4c0.6-0.6,1.2-0.9,2.2-1.1c0.3-0.1,2.7-0.4,6.3,0.3
				c-1.7,3-5,4.7-5.5,4.8c-1.8-0.2-3.9-0.2-5.9,0.4c-0.2,0-0.4,0.1-0.6,0.2C43.5,32,44.1,31.2,44.7,30.4z M34.8,21
				c0.2-2.4,1.1-3.3,1.1-3.3l0.6,0.4c2.4,1.7,4.2,5.1,5.3,10.1c-1.7,2.3-3.2,4.6-3.8,5.4c-0.5-0.8-0.7-1.2-1.1-2
				c-0.1-0.1-0.1-0.3-0.2-0.4C35.4,28,34.5,24.7,34.8,21z M28.4,36.7c-2.7-4.3-1.8-8-1.1-9.5c1.5,0.5,4.4,1.8,6.2,5.4
				c0.1,0.1,0.1,0.3,0.2,0.4c1.4,3.1,0.9,5.9,0.6,7.3C33.1,40.5,30.9,40.7,28.4,36.7z M32.9,60.4c13.4,0.3,32,4,47.3,13.6
				c-1.8,1.1-3.6,2.1-5.4,3.3c-10.1-6.9-27.9-12-42.1-12.1C32.7,63.7,32.8,62,32.9,60.4z M32.8,68.9c12.8,0.1,29,4.6,38.6,10.6
				c-2,1.4-4.1,2.8-6,4.3c-8.2-4.8-21.6-8.6-31.9-9C33.1,72.9,32.9,70.9,32.8,68.9z M34.2,78.6c9,0.5,20.5,3.7,28,7.7
				c-1.5,1.2-2.9,2.4-4.3,3.6c-6.4-3.3-14.5-5.5-22.1-6C35.1,82.2,34.6,80.4,34.2,78.6z M37.1,87.7c6.2,0.6,12.5,2.3,17.7,4.8
				c-1.4,1.3-2.8,2.6-4.1,3.9c-3.3-1.7-6.4-2.5-10.7-2.7C39,91.8,38,89.8,37.1,87.7z M45.6,101.8c-1.1-1.3-2.1-2.7-3.1-4.1
				c2,0.3,3.8,0.8,5.5,1.6C47.2,100.1,46.4,101,45.6,101.8z M70.8,119.5c0.5-0.6,1.1-1.2,1.7-1.7l2.8,3.1
				C73.8,120.5,72.3,120,70.8,119.5z M81.5,122.1l-6.4-6.9c1.2-1.1,2.3-2.2,3.5-3.2l9.9,10.8C86,122.7,83.4,122.4,81.5,122.1z
				 M95.9,122c-0.8,0.2-1.7,0.4-2.6,0.5l-11.8-12.9c1.3-1,2.6-2.1,3.9-3l13.3,14.5C97.9,121.4,97,121.7,95.9,122z M102.1,119.3
				l-13.6-14.9c1.3-0.9,2.6-1.7,3.9-2.6l13,14.2C104.4,117.5,103.3,118.5,102.1,119.3z M107.5,112.8L95.7,99.9
				c1.4-0.8,2.8-1.6,4.3-2.3l9.6,10.5C109,109.6,108.4,111.2,107.5,112.8z M112.8,99.1c-0.8,1.8-1.4,3.4-1.9,5l-7.5-8.1
				c1.5-0.7,3.1-1.4,4.6-2L112.8,99.1L112.8,99.1z M111.7,92.4c1.4-0.5,2.9-1,4.3-1.5l1.2,1.4c-0.9,1.1-1.8,2.2-2.6,3.4L111.7,92.4z
				 M117.8,107.8c-1.4-0.1-2.9-0.3-4.1-0.4c0.1-0.2,0.1-0.4,0.2-0.6c0.5-1.5,1-3.1,1.7-4.8l5.2,5.6
				C119.7,107.8,118.8,107.8,117.8,107.8z M125,106.9l-7.7-8.5c0.8-1.2,1.6-2.4,2.5-3.5l9.5,10.3C127.9,106,126.5,106.5,125,106.9z
				 M132.4,103.3l-10-11c1-0.9,2.1-1.7,3.2-2.5l9.7,10.6C134.4,101.5,133.4,102.5,132.4,103.3z M137.5,97.5l-8.6-9.4
				c0.8-0.4,1.7-0.7,2.6-1c0.6-0.1,1.3-0.2,1.9-0.3l6.4,7C139.2,95,138.4,96.3,137.5,97.5z M141.7,90.4l-3.8-4.1
				c1.9-0.2,3.8-0.3,5.8-0.4C143.2,87,142.6,88.5,141.7,90.4z M147.2,67.7c-15.8,1.1-30.9,4.7-45.1,10.6c-1,0.4-1.4,1.5-1,2.4
				s1.5,1.4,2.4,1c13.6-5.7,28.2-9.1,43.4-10.3c-0.4,3.5-1.1,7.2-2,10.6c-29.4,1-57.6,14.1-77.8,36c-3.3-1.4-6.5-3.2-9.5-5.2
				c2.2-2.2,4.4-4.3,6.7-6.4c0.8-0.7,0.8-1.8,0.2-2.6c-0.7-0.8-1.9-0.9-2.6-0.2c-2.5,2.2-4.9,4.5-7.3,6.9c-2.3-1.8-4.6-3.8-6.6-6
				c12.6-13.8,27.3-24.7,43.6-32.4c17.1-8.1,35.7-12.6,55.3-13.4c0.2,2,0.4,4.1,0.4,6.6C147.3,66.2,147.3,66.9,147.2,67.7z"/>
		</g>
	</g>
</g>
</svg>
